<?xml version="1.0" encoding="utf-8"?>
<!-- Generator: Adobe Illustrator 27.2.0, SVG Export Plug-In . SVG Version: 6.00 Build 0)  -->
<svg version="1.1" id="Layer_1" xmlns="http://www.w3.org/2000/svg" xmlns:xlink="http://www.w3.org/1999/xlink" x="0px" y="0px"
	 viewBox="0 0 841.9 138.5" style="enable-background:new 0 0 841.9 138.5;" xml:space="preserve">
<style type="text/css">
	.st0{fill:none;stroke:#FFFFFF;stroke-width:3;stroke-miterlimit:10;}
	.st1{fill:none;stroke:#FFFFFF;stroke-width:2;stroke-miterlimit:10;}
	.st2{fill-rule:evenodd;clip-rule:evenodd;fill:#FFFFFF;}
	.st3{fill:#FFFFFF;}
	.st4{fill:#FFFFFF;stroke:#FFFFFF;stroke-miterlimit:10;}
	.st5{fill:none;stroke:#FFFFFF;stroke-width:11.9575;stroke-miterlimit:10;}
</style>
<path class="st0" d="M71.8,61.7c1.8-5.5,8.5-13.2,24.8-8.2c0,0-1.4,9.8-7.9,14.8c-6.4,5-17.2,1.5-17.2,1.5S69.6,68.2,71.8,61.7z"/>
<path class="st0" d="M69.7,56.2c-1.8-5.5-8.5-13.2-24.8-8.2c0,0,1.4,9.8,7.9,14.8S70,64.2,70,64.2S71.9,62.6,69.7,56.2z"/>
<line class="st0" x1="70.7" y1="61.4" x2="70.7" y2="90.3"/>
<circle class="st0" cx="70.7" cy="56" r="34.2"/>
<circle class="st0" cx="618" cy="56" r="34.2"/>
<path class="st0" d="M630.2,68.3c-7.9,6.7-19.7,5.8-26.4-2c-6.7-7.9-3.9-17.9,2-26.4c8.2-11.7,19.9-9.7,26.4,2
	C637.2,51,638.1,61.6,630.2,68.3z"/>
<line class="st1" x1="618.3" y1="80" x2="618.3" y2="48.6"/>
<line class="st1" x1="626.9" y1="53.5" x2="618.3" y2="60.6"/>
<line class="st1" x1="626.9" y1="62.3" x2="618.3" y2="69.4"/>
<line class="st1" x1="609.7" y1="53.5" x2="618.3" y2="60.6"/>
<line class="st1" x1="609.7" y1="62.3" x2="618.2" y2="69.4"/>
<path class="st0" d="M597,83.3c6.6-2.1,13.6-3.3,21-3.3c7.3,0,14.3,1.1,20.8,3.2"/>
<circle class="st0" cx="344.4" cy="56" r="34.2"/>
<path class="st2" d="M357.4,34.9c-2.7,0-6.8,12.3-8.2,24.6h4.3v14.9c0,1.6,1.4,2.6,2.6,2.6h0c1.5,0,2.6-1.2,2.6-2.6
	c0-8.9,0-35.6,0-38C358.8,35.6,358.2,34.9,357.4,34.9 M357.1,37.3l0,37.2c0,0.5-0.4,0.9-0.9,0.9c-0.3,0-0.9-0.2-0.9-0.9V57.8h-4.1
	C352.6,47.4,355.4,39.6,357.1,37.3 M342.3,34.9h-1.6l1.2,10.5l-2.4,0l0-10.5h-1.8l0,10.5H336l0-10.5h-1.8l0,10.5H332l1-10.5l-1.6,0
	c0,0-1.1,8.9-1.5,13.3c-0.2,1.6,0.7,3.1,1.9,4.1c1.7,1.3,2.4,1.7,2.4,2.9v19.2c0,1.5,1.2,2.6,2.6,2.6c1.5,0,2.6-1.2,2.6-2.6V55.3
	c0-1.2,0.8-1.6,2.4-2.9c1.3-1,2.1-2.6,2-4.1C343.4,43.7,342.3,34.9,342.3,34.9 M342,47.2c0.1,1.2,0.5,2.4-1.2,3.7
	c-1.7,1.3-3.1,2.1-3.1,4.3v19.2c0,0.5-0.4,0.9-0.9,0.9c-0.5,0-0.9-0.4-0.9-0.9V55.3c0-2.1-1.4-3-3.1-4.3c-1.6-1.3-1.3-2.6-1.1-3.7
	H342z"/>
<circle class="st0" cx="481.2" cy="56" r="34.2"/>
<g>
	<path class="st2" d="M481.9,35.5L481.9,35.5c-2.1,0-3.7-1.7-3.7-3.7v-2.5c0-2.1,1.7-3.7,3.7-3.7l0,0c2.1,0,3.7,1.7,3.7,3.7v2.5
		C485.6,33.9,484,35.5,481.9,35.5z"/>
	<path class="st3" d="M482.8,36.9H481c-4.5,0-7.9,3.8-7.6,8.3l0.3,14.8c0.1,1.1,1,2.1,2.1,2.6l0.4-18.7c0-0.3,0.3-0.6,0.6-0.6
		c0,0,0,0,0,0c0.3,0,0.6,0.3,0.6,0.6L477,63c0,0,0,0,0,0l0.4,16.4l0,0c-1.4,0.8-2.4,1.2-2.4,2.2l0,0c0,0.4,0.3,0.7,0.7,0.7h5.6V59.4
		h1.2v22.9h5.5c0.4,0,0.7-0.3,0.7-0.7v-0.3c0-0.7-0.5-1.1-2.3-1.8l0,0l0.5-16.5c0,0,0,0,0,0l-0.6-19c0-0.3,0.3-0.6,0.6-0.6
		c0.3,0,0.6,0.3,0.6,0.6l0.6,18.8c1.2-0.5,2.2-1.5,2.2-2.7l0.1-14.8C490.7,40.7,487.3,36.9,482.8,36.9z"/>
</g>
<circle class="st0" cx="207.6" cy="56" r="34.2"/>
<g>
	<polygon class="st4" points="188,43.9 186.4,42.6 188.3,37.7 184.2,43 186.8,45.7 	"/>
	<path class="st4" d="M233,53.6c-2.7-4.4-7.4-7.1-12.6-7.1h-19.1l-10.7-2.9c-1.2-0.3-2.4,0.1-3.1,1.1l-5.6,7.6
		c-0.2,0.3-0.1,0.7,0.2,0.9l0.9,0.4c0.6,0.3,1.3,0.4,2,0.2l6.2-1.5l5.1,7.6l0.3,1.8l2.5,12.7h1.4V61.6h1.7l1.7,12.7h1.3l1-12.7h10
		l2.1,7.1c0.1,0.2,0.1,0.4,0,0.6l-1,5h1.5l1.8-6.4c0.1-0.3,0.1-0.6,0.1-0.8l0.3-5.4h1.5l2.1,7.1c0.1,0.2,0.1,0.4,0,0.6l-1,5h1.5
		l1.8-6.4c0.1-0.3,0.1-0.6,0.1-0.8l0.3-5.4h0l0.9-12.3l1.6,1.9l3.2,2.8L233,53.6z"/>
</g>
<g>
	<circle class="st0" cx="754.8" cy="56" r="34.2"/>
</g>
<g>
	<line class="st5" x1="781.8" y1="84.6" x2="783.7" y2="86.5"/>
	<line class="st5" x1="785.1" y1="87.9" x2="812.5" y2="115.3"/>
</g>
</svg>
